/* XPM */
static char *_64c0a3ce41d4413dcd3fb5b30cdb1acVw0FUibuVmIvIxZy[] = {
/* columns rows colors chars-per-pixel */
"100 100 2 1 ",
"  c black",
". c white",
/* pixels */
"                                                                                                    ",
"                                                                                                    ",
"  ................................................................................................  ",
"  ................................................................................................  ",
"  ................................................................................................  ",
"  ................................................................................................  ",
"  ................................................................................................  ",
"  ................................................................................................  ",
"  ................................................................................................  ",
"  ................................................................................................  ",
"  ................................................................................................  ",
"  ................................................................................................  ",
"  ................................................................................................  ",
"  ................................................................................................  ",
"  ................................................................................................  ",
"  ................................................................................................  ",
"  ................................................................................................  ",
"  ................................................................................................  ",
"  ................................................................................................  ",
"  ................................................................................................  ",
"  ................................................................................................  ",
"  ................................................................................................  ",
"  ................................................................................................  ",
"  ................................................................................................  ",
"  ................................................................................................  ",
"  ................................................................................................  ",
"  ................................................................................................  ",
"  ................................................................................................  ",
"  ................................................................................................  ",
"  ................................................................................................  ",
"  ................................................................................................  ",
"  ................................................................................................  ",
"  ................................................................................................  ",
"  ................................................................................................  ",
"  ................................................................................................  ",
"  ................................................................................................  ",
"  ................................................................................................  ",
"  ................................................................................................  ",
"  ................................................................................................  ",
"  ................................................................................................  ",
"  ................................................................................................  ",
"  ................................................................................................  ",
"  ................................................................................................  ",
"  ................................................................................................  ",
"  ................................................................................................  ",
"  .......    ....  ...  ....    ....      ......   ......    ....          ..       ..      ......  ",
"  .......    ....  ...  ....    ....      ......   ......    ....          ..       ..      ......  ",
"  .....  ....  ..  ...  ..  ....  ..  ....  ..  ...  ..  ....  ......  ......  .......  ....  ....  ",
"  .....  ....  ..  ...  ..  ....  ..  ....  ..  ...  ..  ....  ......  ......  .......  ....  ....  ",
"  .....  ........       ..        ..      ....       ..  ............  ......     ....      ......  ",
"  .....  ........       ..        ..      ....       ..  ............  ......     ....      ......  ",
"  .....  ....  ..  ...  ..  ....  ..  ..  ....  ...  ..  ....  ......  ......  .......  ..  ......  ",
"  .....  ....  ..  ...  ..  ....  ..  ..  ....  ...  ..  ....  ......  ......  .......  ..  ......  ",
"  .......    ....  ...  ..  ....  ..  ....  ..  ...  ....    ........  ......       ..  ....  ....  ",
"  .......    ....  ...  ..  ....  ..  ....  ..  ...  ....    ........  ......       ..  ....  ....  ",
"  ................................................................................................  ",
"  ................................................................................................  ",
"  ................................................................................................  ",
"  ................................................................................................  ",
"  ................................................................................................  ",
"  ................................................................................................  ",
"  ................................................................................................  ",
"  ................................................................................................  ",
"  ................................................................................................  ",
"  ................................................................................................  ",
"  ................................................................................................  ",
"  ................................................................................................  ",
"  ................................................................................................  ",
"  ................................................................................................  ",
"  ................................................................................................  ",
"  ................................................................................................  ",
"  ................................................................................................  ",
"  ................................................................................................  ",
"  ................................................................................................  ",
"  ................................................................................................  ",
"  ................................................................................................  ",
"  ................................................................................................  ",
"  ................................................................................................  ",
"  ................................................................................................  ",
"  ................................................................................................  ",
"  ................................................................................................  ",
"  ................................................................................................  ",
"  ................................................................................................  ",
"  ................................................................................................  ",
"  ................................................................................................  ",
"  ................................................................................................  ",
"  ................................................................................................  ",
"  ................................................................................................  ",
"  ................................................................................................  ",
"  ................................................................................................  ",
"  ................................................................................................  ",
"  ................................................................................................  ",
"  ................................................................................................  ",
"  ................................................................................................  ",
"  ................................................................................................  ",
"  ................................................................................................  ",
"  ................................................................................................  ",
"  ................................................................................................  ",
"                                                                                                    ",
"                                                                                                    "
};
