/* XPM */
static char *_b93fe4cbfb141e6a72f7d6bf2d306ca7BGxW7RxPSm5guKs[] = {
/* columns rows colors chars-per-pixel */
"100 100 2 1 ",
"  c black",
". c #464646",
/* pixels */
"                                                                                                    ",
"                                                                                                    ",
"  ................................................................................................  ",
"  ................................................................................................  ",
"  ..                                                                                            ..  ",
"  ..                                                                                            ..  ",
"  ..                                                                                            ..  ",
"  ..                                                                                            ..  ",
"  ..                                                                                            ..  ",
"  ..                                                                                            ..  ",
"  ..                                                                                            ..  ",
"  ..                                                                                            ..  ",
"  ..                                                                                            ..  ",
"  ..                                                                                            ..  ",
"  ..                                                                                            ..  ",
"  ..                                                                                            ..  ",
"  ..                                                                                            ..  ",
"  ..                                                                                            ..  ",
"  ..                                                                                            ..  ",
"  ..                                                                                            ..  ",
"  ..                                                                                            ..  ",
"  ..                                                                                            ..  ",
"  ..                                                                                            ..  ",
"  ..                                                                                            ..  ",
"  ..                                                                                            ..  ",
"  ..                                                                                            ..  ",
"  ..                                                                                            ..  ",
"  ..                                                                                            ..  ",
"  ..                                                                                            ..  ",
"  ..                                                                                            ..  ",
"  ..                                                                                            ..  ",
"  ..                                                                                            ..  ",
"  ..                                                                                            ..  ",
"  ..                                                                                            ..  ",
"  ..                                                                                            ..  ",
"  ..                                                                                            ..  ",
"  ..                                                                                            ..  ",
"  ..                                                                                            ..  ",
"  ..                                                                                            ..  ",
"  ..                                                                                            ..  ",
"  ..                                                                                            ..  ",
"  ..                                                                                            ..  ",
"  ..                                                                                            ..  ",
"  ..                                                                                            ..  ",
"  ..                                                                                            ..  ",
"  ..                                                                                            ..  ",
"  ..                                                                                            ..  ",
"  ..                                                                                            ..  ",
"  ..                                                                                            ..  ",
"  ..                                                                                            ..  ",
"  ..                                                                                            ..  ",
"  ..                                                                                            ..  ",
"  ..                                                                                            ..  ",
"  ..                                                                                            ..  ",
"  ..                                                                                            ..  ",
"  ..                                                                                            ..  ",
"  ..                                                                                            ..  ",
"  ..                                                                                            ..  ",
"  ..                                                                                            ..  ",
"  ..                                                                                            ..  ",
"  ..                                                                                            ..  ",
"  ..                                                                                            ..  ",
"  ..                                                                                            ..  ",
"  ..                                                                                            ..  ",
"  ..                                                                                            ..  ",
"  ..                                                                                            ..  ",
"  ..                                                                                            ..  ",
"  ..                                                                                            ..  ",
"  ..                                                                                            ..  ",
"  ..                                                                                            ..  ",
"  ..                                                                                            ..  ",
"  ..                                                                                            ..  ",
"  ..                                                                                            ..  ",
"  ..                                                                                            ..  ",
"  ..                                                                                            ..  ",
"  ..                                                                                            ..  ",
"  ..                                                                                            ..  ",
"  ..                                                                                            ..  ",
"  ..                                                                                            ..  ",
"  ..                                                                                            ..  ",
"  ..                                                                                            ..  ",
"  ..                                                                                            ..  ",
"  ..                                                                                            ..  ",
"  ..                                                                                            ..  ",
"  ..                                                                                            ..  ",
"  ..                                                                                            ..  ",
"  ..                                                                                            ..  ",
"  ..                                                                                            ..  ",
"  ..                                                                                            ..  ",
"  ..                                                                                            ..  ",
"  ..                                                                                            ..  ",
"  ..                                                                                            ..  ",
"  ..                                                                                            ..  ",
"  ..                                                                                            ..  ",
"  ..                                                                                            ..  ",
"  ..                                                                                            ..  ",
"  ................................................................................................  ",
"  ................................................................................................  ",
"                                                                                                    ",
"                                                                                                    "
};
